PathFileType	4	(x/y/z)	S10_P20_T16
DataRate	CameraRate	NumFrames	NumMarkers	Units	OrigDataRate	OrigDataStartFrame	OrigNumFrames
240	240	7	51	mm	240	349	398
Frame#	Time	Sternum			R.Acromium			L.Acromium			Top.Head			R.ASIS			L.ASIS			R.PSIS			L.PSIS			R.Great.Tro			L.Great.Tro			R.Iliac.Crest			L.Iliac.Crest			V.Sacral			R.Thigh.Upper.Post			R.Thigh.Lower.Ant			R.Thigh.Lower.Post			R.Thigh.Upper.Ant			R.Knee.Lat			R.Knee.Med			R.Shank.Upper.Post			R.Shank.Lower.Ant			R.Shank.Lower.Post			R.Shank.Upper.Ant			R.Ankle.Lat			R.Ankle.Med			R.Heel.Upper			R.Heel.Med			R.Heel.Lat			R.Toe.Lat			R.Toe.Med			R.Toe.Tip			L.Thigh.Upper.Post			L.Thigh.Lower.Ant			L.Thigh.Lower.Post			L.Thigh.Upper.Ant			L.Knee.Lat			L.Knee.Med			L.Shank.Upper.Post			L.Shank.Lower.Ant			L.Shank.Lower.Post			L.Shank.Upper.Ant			L.Ankle.Lat			L.Ankle.Med			L.Heel.Upper			L.Heel.Med			L.Heel.Lat			L.Toe.Lat			L.Toe.Med			L.Toe.Tip			Cervical.Spine			Back			
		X1	Y1	Z1	X2	Y2	Z2	X3	Y3	Z3	X4	Y4	Z4	X5	Y5	Z5	X6	Y6	Z6	X7	Y7	Z7	X8	Y8	Z8	X9	Y9	Z9	X10	Y10	Z10	X11	Y11	Z11	X12	Y12	Z12	X13	Y13	Z13	X14	Y14	Z14	X15	Y15	Z15	X16	Y16	Z16	X17	Y17	Z17	X18	Y18	Z18	X19	Y19	Z19	X20	Y20	Z20	X21	Y21	Z21	X22	Y22	Z22	X23	Y23	Z23	X24	Y24	Z24	X25	Y25	Z25	X26	Y26	Z26	X27	Y27	Z27	X28	Y28	Z28	X29	Y29	Z29	X30	Y30	Z30	X31	Y31	Z31	X32	Y32	Z32	X33	Y33	Z33	X34	Y34	Z34	X35	Y35	Z35	X36	Y36	Z36	X37	Y37	Z37	X38	Y38	Z38	X39	Y39	Z39	X40	Y40	Z40	X41	Y41	Z41	X42	Y42	Z42	X43	Y43	Z43	X44	Y44	Z44	X45	Y45	Z45	X46	Y46	Z46	X47	Y47	Z47	X48	Y48	Z48	X49	Y49	Z49	X50	Y50	Z50	X51	Y51	Z51	

349	1.45	585.24	1284.5	276.81	444.78	1436.9	425.32	476.54	1483.8	133.82	442.07	1759.4	293.16	531.59	1015.4	378.68	528.12	1019.9	146.99	330.83	1044	298.2	337.07	1049	216.83	465.63	943.15	456.13	454.72	959.49	93.179	439.86	1099.3	423.37	467.08	1097.4	120.11	309.75	1014.7	260.42	526.23	734.04	450.66	592.22	671.13	404.09	538.55	645.62	439.14	580.67	761.49	410.26	567.16	528.74	395.74	539.7	525.27	268.5	558.43	293.97	403.73	638.54	252.62	386.91	580.9	222.75	397.57	621.07	327.73	391.59	634.35	119.43	378.61	634.2	133.53	299.96	589.41	56.302	332.43	604.94	33.27	304.35	603.11	34.166	366.54	772.06	73.618	401.54	788.91	93.404	293.77	839.38	127.87	333.43	355.69	700.02	107.47	406.62	604.82	128.23	334.26	608.73	130.36	433.14	689.16	106.33	342.28	516.96	136.87	361.03	510.19	265.39	200.36	345.65	139.48	224.52	238.36	152.07	171.86	273.79	149.69	254.21	308.66	142.33	146.44	146.89	162.06	168.13	153.79	245.12	73.372	139.08	203.83	72.97	106.13	237.42	69.107	108.32	172.49	230.06	42.112	135.62	259.3	44.04	242.74	312.44	44.528	198.09	386.7	1502.8	278.6	304.48	1295.2	251.09
350	1.4542	590.56	1283.9	277.41	450.03	1436.1	426	481.7	1483.4	134.57	447.2	1758.7	293.69	537.18	1014.8	379.23	533.79	1019.3	147.51	336.43	1043.2	298.63	342.72	1048.2	217.25	471.24	942.41	456.52	460.4	958.89	93.559	445.32	1098.6	423.88	472.73	1096.8	120.58	315.42	1013.9	260.8	532.01	733.36	450.74	597.98	670.51	404.07	544.31	644.96	439.08	586.45	760.87	410.43	572.63	528.01	395.51	544.8	524.78	268.41	563.25	293.21	403.09	643.14	251.62	386.06	585.45	221.96	396.84	625.95	326.76	390.84	638.52	118.73	377.68	637.96	132.71	299.04	592.93	56.524	331.93	607.97	33.229	303.85	606.55	34.351	366.04	775.99	72.118	399.86	792.25	91.589	291.94	843.3	125.64	331.21	360.78	699.64	107.98	411.59	604.3	128.23	339.25	608.36	130.72	438.19	688.64	106.43	347.03	516.6	136.86	366.17	509.44	265.33	203.77	346.55	139.33	226.89	239.03	151.7	174.61	274.94	149.46	257.29	309.04	142.04	147.94	148.1	161.78	169.81	154.86	244.67	74.933	141.16	203.52	74.214	108.36	237.24	70.247	110.28	172.32	230.21	42.095	135.55	259.6	44.002	242.48	312.48	44.48	198.09	391.88	1502.1	279.32	309.83	1294.4	251.68
351	1.4583	595.88	1283.3	278.04	455.27	1435.3	426.7	486.85	1482.9	135.33	452.35	1758.1	294.22	542.78	1014.1	379.8	539.5	1018.7	148.05	342.06	1042.3	299.06	348.4	1047.4	217.67	476.87	941.66	456.91	466.12	958.27	93.947	450.78	1097.9	424.41	478.41	1096.2	121.07	321.1	1013	261.17	537.86	732.7	450.83	603.83	669.93	404.07	550.16	644.32	439.03	592.29	760.28	410.61	578.17	527.3	395.28	550.13	524.32	268.33	567.9	292.49	402.47	647.52	250.56	385.22	589.75	221.16	396.14	630.7	325.73	390.11	642.31	118	376.8	641.36	131.83	298.16	595.99	56.798	331.47	610.49	33.213	303.39	609.46	34.577	365.57	779.43	70.407	398.27	795.16	89.504	290.21	846.82	123.07	329.11	365.96	699.21	108.49	416.69	603.74	128.21	344.38	607.92	131.07	443.34	688.08	106.53	351.95	516.2	136.84	371.47	508.63	265.25	207.32	347.45	139.17	229.38	239.71	151.32	177.47	276.1	149.21	260.49	309.42	141.74	149.54	149.35	161.48	171.59	155.94	244.21	76.603	143.32	203.2	75.554	110.69	237.06	71.473	112.34	172.15	230.36	42.084	135.47	259.91	43.954	242.22	312.52	44.435	198.08	397.05	1501.3	280.07	315.19	1293.6	252.28
352	1.4625	601.21	1282.8	278.71	460.48	1434.5	427.41	491.99	1482.4	136.1	457.5	1757.4	294.74	548.42	1013.5	380.39	545.22	1018.2	148.61	347.7	1041.5	299.49	354.09	1046.7	218.08	482.53	940.91	457.32	471.89	957.63	94.344	456.27	1097.2	424.96	484.12	1095.5	121.56	326.81	1012.2	261.54	543.75	732.06	450.91	609.75	669.38	404.09	556.08	643.71	438.99	598.19	759.73	410.79	583.78	526.6	395.07	555.7	523.91	268.26	572.4	291.79	401.86	651.7	249.44	384.42	593.83	220.38	395.47	635.35	324.67	389.38	645.74	117.24	375.96	644.42	130.91	297.32	598.61	57.116	331.05	612.56	33.22	302.98	611.91	34.837	365.15	782.41	68.52	396.8	797.69	87.19	288.61	849.98	120.2	327.13	371.25	698.72	109.01	421.92	603.14	128.2	349.64	607.42	131.43	448.6	687.5	106.64	357.03	515.75	136.8	376.93	507.76	265.15	211.02	348.36	139	231.99	240.4	150.92	180.47	277.28	148.95	263.81	309.8	141.41	151.23	150.64	161.15	173.47	157.06	243.72	78.396	145.56	202.88	77.001	113.1	236.88	72.796	114.49	171.97	230.52	42.081	135.4	260.22	43.898	241.94	312.55	44.392	198.08	402.22	1500.6	280.82	320.55	1292.8	252.89
353	1.4667	606.55	1282.2	279.41	465.67	1433.7	428.13	497.13	1481.9	136.87	462.65	1756.8	295.26	554.07	1012.9	381.01	550.95	1017.6	149.19	353.36	1040.7	299.92	359.8	1045.9	218.49	488.22	940.16	457.74	477.69	956.97	94.75	461.76	1096.4	425.51	489.85	1094.9	122.08	332.52	1011.3	261.9	549.69	731.45	450.99	615.74	668.85	404.13	562.06	643.12	438.96	604.14	759.2	410.98	589.45	525.91	394.88	561.49	523.53	268.19	576.79	291.13	401.29	655.72	248.27	383.65	597.72	219.61	394.85	639.9	323.59	388.68	648.85	116.46	375.16	647.17	129.97	296.53	600.86	57.472	330.67	614.24	33.251	302.63	613.94	35.127	364.78	784.98	66.496	395.46	799.88	84.691	287.15	852.81	117.09	325.29	376.65	698.18	109.52	427.31	602.49	128.18	355.06	606.85	131.78	453.97	686.89	106.74	362.27	515.26	136.75	382.56	506.82	265.03	214.86	349.28	138.82	234.73	241.09	150.5	183.6	278.48	148.68	267.27	310.18	141.06	153.03	151.97	160.8	175.46	158.2	243.21	80.324	147.9	202.56	78.567	115.62	236.69	74.229	116.75	171.79	230.69	42.089	135.33	260.54	43.836	241.65	312.59	44.35	198.08	407.38	1499.8	281.59	325.93	1291.9	253.49
354	1.4708	611.9	1281.6	280.14	470.85	1432.9	428.86	502.25	1481.4	137.65	467.82	1756.1	295.78	559.75	1012.3	381.64	556.7	1017	149.79	359.02	1039.8	300.34	365.51	1045.1	218.9	493.93	939.41	458.18	483.52	956.3	95.165	467.27	1095.7	426.08	495.6	1094.3	122.61	338.26	1010.5	262.26	555.67	730.86	451.08	621.77	668.36	404.19	568.09	642.56	438.93	610.12	758.7	411.18	595.17	525.24	394.71	567.47	523.19	268.14	581.06	290.51	400.76	659.59	247.08	382.9	601.44	218.88	394.28	644.36	322.48	388	651.68	115.69	374.41	649.66	129.01	295.79	602.78	57.859	330.32	615.58	33.305	302.31	615.59	35.442	364.44	787.17	64.374	394.26	801.77	82.056	285.83	855.35	113.79	323.62	382.15	697.57	110.04	432.84	601.8	128.14	360.63	606.2	132.13	459.45	686.26	106.84	367.7	514.72	136.68	388.37	505.82	264.88	218.85	350.2	138.64	237.6	241.8	150.07	186.88	279.7	148.4	270.87	310.56	140.7	154.95	153.35	160.43	177.58	159.37	242.68	82.403	150.33	202.24	80.264	118.23	236.5	75.783	119.11	171.6	230.87	42.111	135.26	260.87	43.771	241.36	312.63	44.307	198.08	412.53	1499.1	282.38	331.31	1291.1	254.11
355	1.475	617.25	1281	280.9	476.02	1432.1	429.61	507.37	1480.9	138.44	472.98	1755.5	296.3	565.44	1011.7	382.3	562.45	1016.4	150.41	364.7	1039	300.77	371.23	1044.2	219.31	499.66	938.66	458.64	489.38	955.61	95.591	472.79	1095	426.67	501.36	1093.8	123.15	344	1009.6	262.62	561.67	730.3	451.17	627.85	667.89	404.27	574.15	642.02	438.92	616.14	758.22	411.4	600.94	524.59	394.56	573.62	522.89	268.11	585.26	289.93	400.27	663.34	245.88	382.2	605.02	218.17	393.77	648.76	321.38	387.35	654.26	114.93	373.7	651.93	128.06	295.09	604.4	58.271	330	616.63	33.382	302.04	616.92	35.777	364.14	789.03	62.197	393.21	803.41	79.333	284.67	857.63	110.36	322.13	387.77	696.9	110.56	438.54	601.06	128.1	366.35	605.48	132.47	465.05	685.6	106.94	373.31	514.12	136.6	394.37	504.74	264.7	223.01	351.12	138.45	240.62	242.52	149.62	190.32	280.94	148.11	274.62	310.94	140.31	156.99	154.77	160.03	179.83	160.56	242.13	84.649	152.86	201.94	82.107	120.97	236.31	77.473	121.59	171.42	231.06	42.152	135.19	261.2	43.707	241.06	312.67	44.261	198.09	417.68	1498.3	283.17	336.7	1290.3	254.73
